<svg xmlns="http://www.w3.org/2000/svg" viewBox="0 0 17.6 14.02"><defs><style>.cls-1{fill:#fff;}</style></defs><g id="Layer_2" data-name="Layer 2"><g id="banner"><g id="menu"><g id="SHOPPING_CART" data-name="SHOPPING CART"><path class="cls-1" d="M15.05,8.59h0l2.48-5.5h0a1,1,0,0,0,.07-.34.82.82,0,0,0-.83-.82H4.56L4.08.55h0A.83.83,0,0,0,3.3,0H.83a.83.83,0,1,0,0,1.65H2.71l3.18,9.07H4.4a1.65,1.65,0,1,0,1.65,1.66h7.7a1.65,1.65,0,1,0,1.65-1.66H7.64L7.23,9.55l7.12-.48A.81.81,0,0,0,15.05,8.59ZM6.66,7.93,5.14,3.58H15.5L13.75,7.46Z"/></g></g></g></g></svg>