<svg xmlns="http://www.w3.org/2000/svg" viewBox="0 0 32 32"><defs><style>.cls-1{fill:#95e1d3;}</style></defs><g id="Layer_2" data-name="Layer 2"><g id="service"><g id="_2" data-name="2"><g id="LINE_GRAPH" data-name="LINE GRAPH"><path class="cls-1" d="M6,19a1.55,1.55,0,0,0,.85-.26l3.13-2,6.66,4.43a1.47,1.47,0,0,0,1.74,0h0l8.5-6h0A1.5,1.5,0,0,0,26,12.51a1.52,1.52,0,0,0-.89.28l-7.63,5.4-6.63-4.42h0a1.51,1.51,0,0,0-.84-.25,1.45,1.45,0,0,0-.78.22h0l-4,2.5h0A1.5,1.5,0,0,0,6,19ZM30.5,0H1.5A1.5,1.5,0,0,0,0,1.5v29A1.5,1.5,0,0,0,1.5,32h29A1.5,1.5,0,0,0,32,30.5V1.5A1.5,1.5,0,0,0,30.5,0ZM29,29H3V3H29Z"/></g></g></g></g></svg>