<svg xmlns="http://www.w3.org/2000/svg" viewBox="0 0 31 28"><defs><style>.cls-1{fill:#95e1d3;}</style></defs><g id="Layer_2" data-name="Layer 2"><g id="service"><g id="_3" data-name="3"><g id="COMPUTER_OK" data-name="COMPUTER / OK"><path class="cls-1" d="M13.44,13.56a1.5,1.5,0,0,0,2.12,0l4-4a1.5,1.5,0,1,0-2.12-2.12L14.5,10.38l-.94-.94a1.5,1.5,0,1,0-2.12,2.12ZM29.5,0H1.5A1.5,1.5,0,0,0,0,1.5v20A1.5,1.5,0,0,0,1.5,23H11v2.5l-2,2V28H22v-.5l-2-2V23h9.5A1.5,1.5,0,0,0,31,21.5V1.5A1.5,1.5,0,0,0,29.5,0ZM29,19H2V2H29Z"/></g></g></g></g></svg>