<svg xmlns="http://www.w3.org/2000/svg" viewBox="0 0 32 30.5"><defs><style>.cls-1{fill:#95e1d3;}</style></defs><g id="Layer_2" data-name="Layer 2"><g id="service"><g id="_1" data-name="1"><g id="ALARM"><path class="cls-1" d="M9.71,1.29A5.94,5.94,0,0,0,6,0,6,6,0,0,0,0,6,5.94,5.94,0,0,0,1.29,9.71,16,16,0,0,1,9.71,1.29ZM22,14.5H17.5V8a1.5,1.5,0,0,0-3,0v8A1.5,1.5,0,0,0,16,17.5h6a1.5,1.5,0,0,0,0-3ZM26.13,0A5.81,5.81,0,0,0,22.5,1.26,15.73,15.73,0,0,1,30.74,9.5,5.81,5.81,0,0,0,32,5.87,5.87,5.87,0,0,0,26.13,0ZM16,1.5A14.49,14.49,0,0,0,5.45,25.93l-2,2a1.5,1.5,0,1,0,2.12,2.12L7.72,27.9a14.48,14.48,0,0,0,16.57,0l2.18,2.18a1.52,1.52,0,0,0,1.05.43A1.48,1.48,0,0,0,29,29,1.52,1.52,0,0,0,28.57,28l-2-2A14.49,14.49,0,0,0,16,1.5Zm0,26A11.5,11.5,0,1,1,27.5,16,11.5,11.5,0,0,1,16,27.5Z"/></g></g></g></g></svg>